<svg id="visual" viewBox="0 0 900 600" width="900" height="600" xmlns="http://www.w3.org/2000/svg" xmlns:xlink="http://www.w3.org/1999/xlink" version="1.1"><g stroke-width="1" stroke-linejoin="bevel"><path d="M374.7 256L228.1 217L359.7 349Z" fill="#205a7a" stroke="#205a7a"></path><path d="M228.1 217L223.1 391L359.7 349Z" fill="#277297" stroke="#277297"></path><path d="M228.1 217L122.6 331L223.1 391Z" fill="#205a7a" stroke="#205a7a"></path><path d="M114.6 447L231.1 450L223.1 391Z" fill="#112e42" stroke="#112e42"></path><path d="M223.1 391L231.1 450L359.7 349Z" fill="#246688" stroke="#246688"></path><path d="M372.7 124L249.1 111L228.1 217Z" fill="#205a7a" stroke="#205a7a"></path><path d="M228.1 217L93.6 234L122.6 331Z" fill="#297ea6" stroke="#297ea6"></path><path d="M374.7 256L372.7 124L228.1 217Z" fill="#297ea6" stroke="#297ea6"></path><path d="M120.6 102L93.6 234L228.1 217Z" fill="#1d4e6b" stroke="#1d4e6b"></path><path d="M231.1 450L396.7 474L359.7 349Z" fill="#19435d" stroke="#19435d"></path><path d="M359.7 349L539.3 269L374.7 256Z" fill="#205a7a" stroke="#205a7a"></path><path d="M374.7 256L492.3 134L372.7 124Z" fill="#081a28" stroke="#081a28"></path><path d="M0 367L114.6 447L122.6 331Z" fill="#205a7a" stroke="#205a7a"></path><path d="M122.6 331L114.6 447L223.1 391Z" fill="#081a28" stroke="#081a28"></path><path d="M231.1 450L238.1 600L396.7 474Z" fill="#081a28" stroke="#081a28"></path><path d="M249.1 111L120.6 102L228.1 217Z" fill="#205a7a" stroke="#205a7a"></path><path d="M545.3 380L539.3 269L359.7 349Z" fill="#246688" stroke="#246688"></path><path d="M539.3 269L492.3 134L374.7 256Z" fill="#205a7a" stroke="#205a7a"></path><path d="M372.7 124L261.1 0L249.1 111Z" fill="#081a28" stroke="#081a28"></path><path d="M396.7 474L545.3 380L359.7 349Z" fill="#277297" stroke="#277297"></path><path d="M398.7 0L261.1 0L372.7 124Z" fill="#112e42" stroke="#112e42"></path><path d="M249.1 111L159.6 0L120.6 102Z" fill="#00101c" stroke="#00101c"></path><path d="M93.6 234L0 367L122.6 331Z" fill="#19435d" stroke="#19435d"></path><path d="M0 206L0 367L93.6 234Z" fill="#246688" stroke="#246688"></path><path d="M120.6 102L0 206L93.6 234Z" fill="#0c2435" stroke="#0c2435"></path><path d="M396.7 474L537.3 456L545.3 380Z" fill="#297ea6" stroke="#297ea6"></path><path d="M492.3 134L398.7 0L372.7 124Z" fill="#1d4e6b" stroke="#1d4e6b"></path><path d="M100.6 600L238.1 600L114.6 447Z" fill="#205a7a" stroke="#205a7a"></path><path d="M114.6 447L238.1 600L231.1 450Z" fill="#297ea6" stroke="#297ea6"></path><path d="M396.7 474L506.3 600L537.3 456Z" fill="#15384f" stroke="#15384f"></path><path d="M261.1 0L159.6 0L249.1 111Z" fill="#246688" stroke="#246688"></path><path d="M120.6 102L0 103L0 206Z" fill="#205a7a" stroke="#205a7a"></path><path d="M238.1 600L399.7 600L396.7 474Z" fill="#297ea6" stroke="#297ea6"></path><path d="M0 367L0 462L114.6 447Z" fill="#00101c" stroke="#00101c"></path><path d="M0 0L0 103L120.6 102Z" fill="#277297" stroke="#277297"></path><path d="M635.9 135L481.3 0L492.3 134Z" fill="#15384f" stroke="#15384f"></path><path d="M492.3 134L481.3 0L398.7 0Z" fill="#15384f" stroke="#15384f"></path><path d="M545.3 380L631.9 375L539.3 269Z" fill="#00101c" stroke="#00101c"></path><path d="M539.3 269L635.9 135L492.3 134Z" fill="#297ea6" stroke="#297ea6"></path><path d="M612.9 454L631.9 375L545.3 380Z" fill="#0c2435" stroke="#0c2435"></path><path d="M612.9 454L545.3 380L537.3 456Z" fill="#19435d" stroke="#19435d"></path><path d="M0 462L100.6 600L114.6 447Z" fill="#246688" stroke="#246688"></path><path d="M506.3 600L612.9 454L537.3 456Z" fill="#277297" stroke="#277297"></path><path d="M631.9 375L660.9 239L539.3 269Z" fill="#246688" stroke="#246688"></path><path d="M399.7 600L506.3 600L396.7 474Z" fill="#1d4e6b" stroke="#1d4e6b"></path><path d="M660.9 239L635.9 135L539.3 269Z" fill="#15384f" stroke="#15384f"></path><path d="M159.6 0L0 0L120.6 102Z" fill="#081a28" stroke="#081a28"></path><path d="M0 462L0 600L100.6 600Z" fill="#246688" stroke="#246688"></path><path d="M631.9 375L739.4 358L660.9 239Z" fill="#297ea6" stroke="#297ea6"></path><path d="M660.9 239L753.4 111L635.9 135Z" fill="#081a28" stroke="#081a28"></path><path d="M612.9 454L739.4 358L631.9 375Z" fill="#19435d" stroke="#19435d"></path><path d="M751.4 502L739.4 358L612.9 454Z" fill="#297ea6" stroke="#297ea6"></path><path d="M739.4 358L749.4 262L660.9 239Z" fill="#081a28" stroke="#081a28"></path><path d="M753.4 111L662.9 0L635.9 135Z" fill="#0c2435" stroke="#0c2435"></path><path d="M635.9 135L662.9 0L481.3 0Z" fill="#277297" stroke="#277297"></path><path d="M506.3 600L672.9 600L612.9 454Z" fill="#205a7a" stroke="#205a7a"></path><path d="M749.4 262L753.4 111L660.9 239Z" fill="#1d4e6b" stroke="#1d4e6b"></path><path d="M672.9 600L751.4 502L612.9 454Z" fill="#15384f" stroke="#15384f"></path><path d="M900 365L900 216L749.4 262Z" fill="#297ea6" stroke="#297ea6"></path><path d="M900 97L791.4 0L753.4 111Z" fill="#277297" stroke="#277297"></path><path d="M672.9 600L770.4 600L751.4 502Z" fill="#1d4e6b" stroke="#1d4e6b"></path><path d="M900 365L749.4 262L739.4 358Z" fill="#112e42" stroke="#112e42"></path><path d="M753.4 111L791.4 0L662.9 0Z" fill="#277297" stroke="#277297"></path><path d="M900 216L753.4 111L749.4 262Z" fill="#1d4e6b" stroke="#1d4e6b"></path><path d="M900 365L739.4 358L751.4 502Z" fill="#277297" stroke="#277297"></path><path d="M900 495L900 365L751.4 502Z" fill="#297ea6" stroke="#297ea6"></path><path d="M900 216L900 97L753.4 111Z" fill="#246688" stroke="#246688"></path><path d="M770.4 600L900 495L751.4 502Z" fill="#112e42" stroke="#112e42"></path><path d="M900 97L900 0L791.4 0Z" fill="#277297" stroke="#277297"></path><path d="M770.4 600L900 600L900 495Z" fill="#00101c" stroke="#00101c"></path></g></svg>